<svg xmlns="http://www.w3.org/2000/svg" width="48.674" height="37.075" viewBox="0 0 48.674 37.075">
    <g id="prefix__crown" transform="rotate(12.04 408.21 67.079)">
        <path id="prefix__Path_636" d="M40.749 89a3.7 3.7 0 0 0-3.7 3.7 3.665 3.665 0 0 0 .185 1.143l-3 1.91a4.631 4.631 0 0 1-6.072-.972l-2.945-3.6A3.662 3.662 0 0 0 25.931 89a3.7 3.7 0 1 0-7.409 0 3.662 3.662 0 0 0 .722 2.182l-2.945 3.6a4.631 4.631 0 0 1-6.07.972l-3.006-1.91a3.66 3.66 0 0 0 .186-1.144 3.7 3.7 0 1 0-4.029 3.69l2.19 13.137a.926.926 0 0 0 .913.774h31.488a.926.926 0 0 0 .913-.774l2.189-13.132A3.7 3.7 0 0 0 40.749 89z" data-name="Path 636" style="fill:#ffc107"/>
        <ellipse id="prefix__Ellipse_62" cx="15.744" cy="4.631" data-name="Ellipse 62" rx="15.744" ry="4.631" transform="translate(6.483 104.744)" style="fill:#ffa000"/>
        <path id="prefix__Path_637" d="M80.67 309.742c-8.285 0-16.67-1.908-16.67-5.557s8.385-5.557 16.67-5.557 16.67 1.908 16.67 5.557-8.385 5.557-16.67 5.557zm0-9.261c-9.728 0-14.818 2.408-14.818 3.7s5.09 3.7 14.818 3.7 14.818-2.408 14.818-3.7-5.088-3.7-14.818-3.7z" data-name="Path 637" transform="translate(-58.443 -194.811)" style="fill:#ffd54f"/>
    </g>
</svg>
